<svg xmlns="http://www.w3.org/2000/svg" width="720" height="240" viewBox="0 0 720 240" fill="none">
  <rect width="720" height="240" fill="#283C39"/>
  <path d="M0 204H720V240H0V204Z" fill="#172D2B"/>
  <path d="M350 35H680V204H350V35Z" fill="#36534E"/>
  <path d="M378 54H548V174H378V54Z" fill="#F8FAFB" stroke="#65AFA4" stroke-width="4"/>
  <path d="M398 76H524M398 100H478M398 124H511M398 148H462" stroke="#176B68" stroke-width="7"/>
  <path d="M570 63H647V109H570V63ZM570 128H647V174H570V128Z" fill="#E8F2EF" stroke="#65AFA4" stroke-width="4"/>
  <path d="M548 86H570M548 151H570" stroke="#E6AF2E" stroke-width="5"/>
  <path d="M609 109V128" stroke="#E6AF2E" stroke-width="5"/>
  <path d="M386 188H450V205H386V188ZM472 188H536V205H472V188ZM558 188H622V205H558V188Z" fill="#9BD3C5"/>
  <path d="M337 211H689" stroke="#4D6965" stroke-width="6"/>
</svg>
